<svg xmlns="http://www.w3.org/2000/svg" id="svg4775" width="24" height="24" version="1.1" viewBox="0 0 6.35 6.35"><defs id="defs4769"><style id="style4894">.cls-1{fill:#fff}</style></defs><metadata id="metadata4772"/><g id="layer1" transform="translate(0,-290.64998)"><path style="fill:#fff;stroke-width:.01915808" id="path4900" d="M 6.1098295,292.90038 H 5.9360947 v -0.0221 A 0.52443936,0.53157842 0 0 0 5.4122263,292.34643 H 1.6425805 l 3.6956228,-1.15614 a 0.13055338,0.13233057 0 1 0 -0.077068,-0.25287 l -4.5570652,1.42463 -0.035965,0.0113 -0.008572,0.003 a 0.10846533,0.10994184 0 0 0 -0.0201717,0.008 0.52501023,0.53215705 0 0 0 -0.32882118,0.49434 v 2.92059 a 0.52462965,0.5317713 0 0 0 0.52462935,0.53197 H 5.4120246 a 0.52443936,0.53157842 0 0 0 0.5238686,-0.53176 v -2.06614 h 0.1737343 a 0.08753343,0.08872498 0 0 0 0.087533,-0.0887 v -0.65582 a 0.08753343,0.08872498 0 0 0 -0.087343,-0.0879 z m -5.30128959,0.0674 a 0.16174654,0.16394835 0 0 1 0.16136534,-0.16355 H 3.8318675 v 0.83383 a 0.09799937,0.09933341 0 1 0 0.1959986,0 v -0.83364 H 5.27693 a 0.16136595,0.16356259 0 0 1 0.161366,0.16357 v 0.84867 A 0.16136595,0.16356259 0 0 1 5.27693,293.98022 H 0.97047618 a 0.16174654,0.16394835 0 0 1 -0.16136544,-0.16348 z m 2.71182259,2.8103 H 0.93375046 a 0.13072926,0.13250885 0 1 1 0,-0.26481 H 3.5203625 a 0.13072926,0.13250885 0 0 1 0,0.26481 z m 0,-0.52964 H 0.93375046 a 0.13072926,0.13250885 0 0 1 0,-0.26483 H 3.5203625 a 0.13072926,0.13250885 0 0 1 0,0.26483 z m 0,-0.52964 H 0.93375046 a 0.13072926,0.13250885 0 1 1 0,-0.26485 H 3.5203625 a 0.13072926,0.13250885 0 0 1 0,0.26485 z m 1.3006326,1.02496 a 0.61939409,0.62782573 0 1 1 0.6192038,-0.62821 0.61977468,0.6282115 0 0 1 -0.6193942,0.62821 z" class="cls-1"/><path style="fill:#fff;stroke-width:.01915808" id="path4902" d="m 5.1789308,295.1156 a 0.35793557,0.36280806 0 1 1 -0.3579357,-0.36281 0.35850646,0.3633867 0 0 1 0.3579357,0.36281 z" class="cls-1"/></g></svg>